# xmcd
#
# Track frame offsets:
#	150
#	16762
#	36165
#	52785
#
# Disc length: 903 seconds
# Revision: 0
# Processed by: cddbd v1.5.2PL0 Copyright (c) Steve Scherf et al.
# Submitted via: dBpowerAMP V12.0
#
DISCID=21038504
DTITLE=The Moffatts - I'll Be There For You [Maxi]
DYEAR=1997
DGENRE=Country*
TTITLE0=I'll Be There For You (Radio Edit)
TTITLE1=I'll Be There For You (Long Version)
TTITLE2=I'll Be There For You (Instrumental Version)
TTITLE3=Now and Forever
EXTD=
EXTT0=
EXTT1=
EXTT2=
EXTT3=
PLAYORDER=
